# xmcd
#
# Track frame offsets: 
#        150
#        1834
#        25213
#        51624
#        71846
#        90120
#        113610
#        142291
#        158107
#        178152
#        201654
#        222273
#        243392
#        259037
#        292328
#        294607
#
# Disc length: 4253 seconds
#
# Revision: 0
# Processed by: cddbd v1.5.2PL0 Copyright (c) Steve Scherf et al.
# Submitted via: ExactAudioCopy v1.0b1
#
DISCID=fd109b10
DTITLE=Various Artist - The Music Maker Revue - Live! In Europe
DYEAR=2011
DGENRE=Blues
TTITLE0=The Music Maker Revue - Intro
TTITLE1=Pura Fe - Borders
TTITLE2=Pura Fe - Summertime
TTITLE3=Dr Burt - What Can An Old Man Do, But Sing The Blues?
TTITLE4=Eddie Tigner - Let The Good Times Roll
TTITLE5=Eddie Tigner - (Get Your Kicks On) Route 66
TTITLE6=Eddie Tigner - Going Down Slow
TTITLE7=Alabama Slim - Old Folks Boogie
TTITLE8=Alabama Slim - Blue and Lonesome
TTITLE9=Alabama Slim - Trouble No More
TTITLE10=Albert White - Stranded
TTITLE11=Pat Cohen - You Can Have My Husband, But Please Don't Mess Wi
TTITLE11=th My Man
TTITLE12=Pat Cohen - At Last
TTITLE13=Pat Cohen - Wang, Dang, Doodle
TTITLE14=Pat Cohen - Applauses
TTITLE15=Everybody and Howlin' Bill - The Blues Is Alright
EXTD=
EXTT0=
EXTT1=
EXTT2=
EXTT3=
EXTT4=
EXTT5=
EXTT6=
EXTT7=
EXTT8=
EXTT9=
EXTT10=
EXTT11=
EXTT12=
EXTT13=
EXTT14=
EXTT15=
PLAYORDER=
